<?xml version="1.0" encoding="UTF-8"?>
<svg width="290px" height="56px" viewBox="0 0 290 56" version="1.1" xmlns="http://www.w3.org/2000/svg" xmlns:xlink="http://www.w3.org/1999/xlink">
    <!-- Generator: Sketch 46.2 (44496) - http://www.bohemiancoding.com/sketch -->
    <title>Group Copy</title>
    <desc>Created with Sketch.</desc>
    <defs></defs>
    <g id="Page-1" stroke="none" stroke-width="1" fill="none" fill-rule="evenodd">
        <g id="Artboard" transform="translate(-451.000000, -54.000000)">
            <g id="Group-Copy" transform="translate(451.000000, 54.000000)">
                <rect id="Path" fill="#FFFFFF" x="0" y="0" width="290" height="56"></rect>
                <path d="M80.362,31.194 L74.246,31.194 L72.86,35 L70.44,35 L75.918,20.48 L78.734,20.48 L84.212,35 L81.726,35 L80.362,31.194 Z M79.658,29.28 L77.986,24.616 L77.326,22.526 L77.26,22.526 L76.644,24.572 L74.928,29.28 L79.658,29.28 Z M96.018,24 L96.018,35 L93.928,35 L93.84,33.218 C93.0919963,34.5526733 91.786676,35.22 89.924,35.22 C88.7359941,35.22 87.7790036,34.8936699 87.053,34.241 C86.3269964,33.5883301 85.964,32.5873401 85.964,31.238 L85.964,24 L88.318,24 L88.318,30.622 C88.318,31.5900048 88.5086648,32.2756646 88.89,32.679 C89.2713352,33.0823354 89.8359963,33.284 90.584,33.284 C91.4786711,33.284 92.2156638,33.0016695 92.795,32.437 C93.3743362,31.8723305 93.664,31.0400055 93.664,29.94 L93.664,24 L96.018,24 Z M106.548,34.274 C106.195998,34.5673348 105.767003,34.7983325 105.261,34.967 C104.754997,35.1356675 104.20867,35.22 103.622,35.22 C102.609995,35.22 101.79967,34.9670025 101.191,34.461 C100.58233,33.9549975 100.270667,33.166672 100.256,32.096 L100.256,25.848 L98.166,25.848 L98.166,24 L100.256,24 L100.256,21.426 L102.61,20.766 L102.61,24 L106.46,24 L106.46,25.848 L102.61,25.848 L102.61,31.7 C102.61,32.2280026 102.752999,32.6203321 103.039,32.877 C103.325001,33.133668 103.717331,33.262 104.216,33.262 C104.89067,33.262 105.484664,33.0273357 105.998,32.558 L106.548,34.274 Z M117.364,25.298 C118.332005,26.3100051 118.816,27.7106577 118.816,29.5 C118.816,31.2893423 118.332005,32.6899949 117.364,33.702 C116.395995,34.7140051 115.054009,35.22 113.338,35.22 C111.621991,35.22 110.280005,34.7140051 109.312,33.702 C108.343995,32.6899949 107.86,31.2893423 107.86,29.5 C107.86,27.7106577 108.343995,26.3100051 109.312,25.298 C110.280005,24.2859949 111.621991,23.78 113.338,23.78 C115.054009,23.78 116.395995,24.2859949 117.364,25.298 Z M111.039,26.629 C110.503664,27.2963367 110.236,28.2533271 110.236,29.5 C110.236,30.7466729 110.503664,31.7036633 111.039,32.371 C111.574336,33.0383367 112.340662,33.372 113.338,33.372 C114.335338,33.372 115.105331,33.03467 115.648,32.36 C116.190669,31.68533 116.462,30.7320062 116.462,29.5 C116.462,28.2679938 116.190669,27.31467 115.648,26.64 C115.105331,25.96533 114.335338,25.628 113.338,25.628 C112.340662,25.628 111.574336,25.9616633 111.039,26.629 Z M136.87,24.231 C137.486003,24.5316682 137.977331,24.9899969 138.344,25.606 C138.710668,26.2220031 138.894,26.9773289 138.894,27.872 L138.894,35 L136.54,35 L136.54,28.246 C136.54,27.3806623 136.334669,26.7426687 135.924,26.332 C135.513331,25.9213313 134.963337,25.716 134.274,25.716 C133.467329,25.716 132.789003,26.0093304 132.239,26.596 C131.688997,27.1826696 131.414,27.9893282 131.414,29.016 L131.414,35 L129.06,35 L129.06,28.246 C129.06,27.3806623 128.854669,26.7426687 128.444,26.332 C128.033331,25.9213313 127.483337,25.716 126.794,25.716 C126.324664,25.716 125.870002,25.8369988 125.43,26.079 C124.989998,26.3210012 124.630668,26.6986641 124.352,27.212 C124.073332,27.7253359 123.934,28.3706628 123.934,29.148 L123.934,35 L121.58,35 L121.58,24 L123.67,24 L123.78,25.826 C124.146669,25.15133 124.64533,24.6416684 125.276,24.297 C125.90667,23.9523316 126.595996,23.78 127.344,23.78 C128.165337,23.78 128.909663,23.9669981 129.577,24.341 C130.244337,24.7150019 130.739332,25.2613297 131.062,25.98 C131.399335,25.2613297 131.91633,24.7150019 132.613,24.341 C133.30967,23.9669981 134.053996,23.78 134.846,23.78 C135.579337,23.78 136.253997,23.9303318 136.87,24.231 Z M152.526,33.372 L152.372,34.956 C151.975998,35.1320009 151.521336,35.22 151.008,35.22 C150.37733,35.22 149.875002,35.0953346 149.501,34.846 C149.126998,34.5966654 148.881334,34.1786696 148.764,33.592 C148.426665,34.1053359 147.928003,34.5049986 147.268,34.791 C146.607997,35.0770014 145.867337,35.22 145.046,35.22 C143.975328,35.22 143.110003,34.9706692 142.45,34.472 C141.789997,33.9733308 141.46,33.2620046 141.46,32.338 C141.46,31.4726623 141.81933,30.743003 142.538,30.149 C143.25667,29.554997 144.327326,29.1333346 145.75,28.884 L148.544,28.4 L148.544,27.806 C148.544,27.13133 148.346002,26.5996686 147.95,26.211 C147.553998,25.8223314 147.004004,25.628 146.3,25.628 C144.847993,25.628 143.902002,26.2879934 143.462,27.608 L141.636,26.64 C141.900001,25.7599956 142.438996,25.0633359 143.253,24.55 C144.067004,24.0366641 145.067994,23.78 146.256,23.78 C147.678674,23.78 148.807996,24.1099967 149.644,24.77 C150.480004,25.4300033 150.898,26.3979936 150.898,27.674 L150.898,32.646 C150.898,32.9246681 150.960333,33.1299993 151.085,33.262 C151.209667,33.3940007 151.418665,33.46 151.712,33.46 C152.034668,33.46 152.305999,33.430667 152.526,33.372 Z M147.642,32.866 C148.243336,32.4846648 148.544,31.9786698 148.544,31.348 L148.544,30.028 L146.146,30.512 C145.38333,30.6586674 144.818669,30.8639987 144.452,31.128 C144.085331,31.3920013 143.902,31.7439978 143.902,32.184 C143.902,32.5946687 144.044999,32.9063323 144.331,33.119 C144.617001,33.3316677 145.023997,33.438 145.552,33.438 C146.344004,33.438 147.040664,33.2473352 147.642,32.866 Z M161.186,34.274 C160.833998,34.5673348 160.405003,34.7983325 159.899,34.967 C159.392997,35.1356675 158.84667,35.22 158.26,35.22 C157.247995,35.22 156.43767,34.9670025 155.829,34.461 C155.22033,33.9549975 154.908667,33.166672 154.894,32.096 L154.894,25.848 L152.804,25.848 L152.804,24 L154.894,24 L154.894,21.426 L157.248,20.766 L157.248,24 L161.098,24 L161.098,25.848 L157.248,25.848 L157.248,31.7 C157.248,32.2280026 157.390999,32.6203321 157.677,32.877 C157.963001,33.133668 158.355331,33.262 158.854,33.262 C159.52867,33.262 160.122664,33.0273357 160.636,32.558 L161.186,34.274 Z M163.158,21.767 C162.879332,21.5103321 162.74,21.1473357 162.74,20.678 C162.74,20.2086643 162.879332,19.8493346 163.158,19.6 C163.436668,19.3506654 163.825331,19.226 164.324,19.226 C164.822669,19.226 165.207665,19.3506654 165.479,19.6 C165.750335,19.8493346 165.886,20.2086643 165.886,20.678 C165.886,21.1473357 165.750335,21.5103321 165.479,21.767 C165.207665,22.023668 164.822669,22.152 164.324,22.152 C163.825331,22.152 163.436668,22.023668 163.158,21.767 Z M165.49,35 L163.136,35 L163.136,24 L165.49,24 L165.49,35 Z M177.78,25.298 C178.748005,26.3100051 179.232,27.7106577 179.232,29.5 C179.232,31.2893423 178.748005,32.6899949 177.78,33.702 C176.811995,34.7140051 175.470009,35.22 173.754,35.22 C172.037991,35.22 170.696005,34.7140051 169.728,33.702 C168.759995,32.6899949 168.276,31.2893423 168.276,29.5 C168.276,27.7106577 168.759995,26.3100051 169.728,25.298 C170.696005,24.2859949 172.037991,23.78 173.754,23.78 C175.470009,23.78 176.811995,24.2859949 177.78,25.298 Z M171.455,26.629 C170.919664,27.2963367 170.652,28.2533271 170.652,29.5 C170.652,30.7466729 170.919664,31.7036633 171.455,32.371 C171.990336,33.0383367 172.756662,33.372 173.754,33.372 C174.751338,33.372 175.521331,33.03467 176.064,32.36 C176.606669,31.68533 176.878,30.7320062 176.878,29.5 C176.878,28.2679938 176.606669,27.31467 176.064,26.64 C175.521331,25.96533 174.751338,25.628 173.754,25.628 C172.756662,25.628 171.990336,25.9616633 171.455,26.629 Z M190.895,24.836 C191.665004,25.5400035 192.05,26.5519934 192.05,27.872 L192.05,35 L189.696,35 L189.696,28.62 C189.696,26.6839903 188.911341,25.716 187.342,25.716 C186.520663,25.716 185.81667,25.9983305 185.23,26.563 C184.64333,27.1276695 184.35,27.9966608 184.35,29.17 L184.35,35 L181.996,35 L181.996,24 L184.086,24 L184.196,25.826 C184.562669,25.1366632 185.068663,24.623335 185.714,24.286 C186.359337,23.948665 187.092663,23.78 187.914,23.78 C189.131339,23.78 190.124996,24.1319965 190.895,24.836 Z M212.582,33.372 L212.428,34.956 C212.031998,35.1320009 211.577336,35.22 211.064,35.22 C210.43333,35.22 209.931002,35.0953346 209.557,34.846 C209.182998,34.5966654 208.937334,34.1786696 208.82,33.592 C208.482665,34.1053359 207.984003,34.5049986 207.324,34.791 C206.663997,35.0770014 205.923337,35.22 205.102,35.22 C204.031328,35.22 203.166003,34.9706692 202.506,34.472 C201.845997,33.9733308 201.516,33.2620046 201.516,32.338 C201.516,31.4726623 201.87533,30.743003 202.594,30.149 C203.31267,29.554997 204.383326,29.1333346 205.806,28.884 L208.6,28.4 L208.6,27.806 C208.6,27.13133 208.402002,26.5996686 208.006,26.211 C207.609998,25.8223314 207.060004,25.628 206.356,25.628 C204.903993,25.628 203.958002,26.2879934 203.518,27.608 L201.692,26.64 C201.956001,25.7599956 202.494996,25.0633359 203.309,24.55 C204.123004,24.0366641 205.123994,23.78 206.312,23.78 C207.734674,23.78 208.863996,24.1099967 209.7,24.77 C210.536004,25.4300033 210.954,26.3979936 210.954,27.674 L210.954,32.646 C210.954,32.9246681 211.016333,33.1299993 211.141,33.262 C211.265667,33.3940007 211.474665,33.46 211.768,33.46 C212.090668,33.46 212.361999,33.430667 212.582,33.372 Z M207.698,32.866 C208.299336,32.4846648 208.6,31.9786698 208.6,31.348 L208.6,30.028 L206.202,30.512 C205.43933,30.6586674 204.874668,30.8639987 204.508,31.128 C204.141332,31.3920013 203.958,31.7439978 203.958,32.184 C203.958,32.5946687 204.100999,32.9063323 204.387,33.119 C204.673001,33.3316677 205.079997,33.438 205.608,33.438 C206.400004,33.438 207.096664,33.2473352 207.698,32.866 Z M223.596,34.032 C224.212003,34.5306692 224.52,35.2199956 224.52,36.1 C224.52,36.8480037 224.274336,37.4933306 223.783,38.036 C223.291664,38.5786694 222.617004,38.9966652 221.759,39.29 C220.900996,39.5833348 219.936672,39.73 218.866,39.73 C217.120658,39.73 215.811671,39.4733359 214.939,38.96 C214.066329,38.4466641 213.63,37.7646709 213.63,36.914 C213.63,36.4153308 213.802332,35.9790019 214.147,35.605 C214.491668,35.2309981 214.971997,34.9633341 215.588,34.802 C215.118664,34.5819989 214.744668,34.2996684 214.466,33.955 C214.187332,33.6103316 214.048,33.1960024 214.048,32.712 C214.048,31.641328 214.619994,30.908002 215.764,30.512 C215.206664,30.1893317 214.785001,29.7713359 214.499,29.258 C214.212999,28.7446641 214.07,28.1580033 214.07,27.498 C214.07,26.764663 214.267998,26.1156695 214.664,25.551 C215.060002,24.9863305 215.620996,24.5500015 216.347,24.242 C217.073004,23.9339985 217.905329,23.78 218.844,23.78 C219.650671,23.78 220.39133,23.8973322 221.066,24.132 C221.271334,23.3253293 221.641664,22.7130021 222.177,22.295 C222.712336,21.8769979 223.419996,21.6753333 224.3,21.69 L224.696,23.516 C223.991996,23.5013333 223.423669,23.5893324 222.991,23.78 C222.558331,23.9706676 222.261334,24.2566648 222.1,24.638 C222.584002,24.975335 222.957999,25.3859976 223.222,25.87 C223.486001,26.3540024 223.618,26.8966637 223.618,27.498 C223.618,28.627339 223.181671,29.52933 222.309,30.204 C221.436329,30.87867 220.281341,31.216 218.844,31.216 C218.16933,31.216 217.560669,31.1500007 217.018,31.018 C216.651331,31.1060004 216.383668,31.248999 216.215,31.447 C216.046332,31.645001 215.962,31.9053317 215.962,32.228 C215.962,32.565335 216.082999,32.8256657 216.325,33.009 C216.567001,33.1923343 216.900665,33.284 217.326,33.284 L221,33.284 C222.114672,33.284 222.979997,33.5333308 223.596,34.032 Z M217.15,26.013 C216.695331,26.4016686 216.468,26.8966637 216.468,27.498 C216.468,28.1140031 216.695331,28.6163314 217.15,29.005 C217.604669,29.3936686 218.16933,29.588 218.844,29.588 C219.533337,29.588 220.101664,29.3936686 220.549,29.005 C220.996336,28.6163314 221.22,28.1140031 221.22,27.498 C221.22,26.8819969 220.996336,26.3833352 220.549,26.002 C220.101664,25.6206648 219.533337,25.43 218.844,25.43 C218.16933,25.43 217.604669,25.6243314 217.15,26.013 Z M221.594,37.508 C222.195336,37.1999985 222.496,36.8186689 222.496,36.364 C222.496,35.9973315 222.349335,35.7186676 222.056,35.528 C221.762665,35.3373324 221.271337,35.242 220.582,35.242 L217.612,35.242 C216.951997,35.242 216.457002,35.3446656 216.127,35.55 C215.796998,35.7553344 215.632,36.0413315 215.632,36.408 C215.632,36.9066692 215.921664,37.2916653 216.501,37.563 C217.080336,37.8343347 217.941994,37.97 219.086,37.97 C220.156672,37.97 220.992664,37.8160015 221.594,37.508 Z M236.282,30.38 L228.23,30.38 C228.362001,31.3480048 228.706664,32.0849975 229.264,32.591 C229.821336,33.0970025 230.539996,33.35 231.42,33.35 C232.13867,33.35 232.736331,33.2216679 233.213,32.965 C233.689669,32.708332 234.015999,32.3380024 234.192,31.854 L236.15,32.668 C235.328663,34.3693418 233.752012,35.22 231.42,35.22 C229.689325,35.22 228.336338,34.7140051 227.361,33.702 C226.385662,32.6899949 225.898,31.2893423 225.898,29.5 C225.898,27.695991 226.367329,26.2916717 227.306,25.287 C228.244671,24.2823283 229.564658,23.78 231.266,23.78 C232.879341,23.78 234.133329,24.2713284 235.028,25.254 C235.922671,26.2366716 236.37,27.5419919 236.37,29.17 C236.37,29.5953355 236.340667,29.9986648 236.282,30.38 Z M229.209,26.398 C228.688331,26.8966692 228.362001,27.6226619 228.23,28.576 L234.17,28.576 C234.052666,27.6519954 233.741003,26.9333359 233.235,26.42 C232.728997,25.9066641 232.072671,25.65 231.266,25.65 C230.415329,25.65 229.729669,25.8993308 229.209,26.398 Z M247.967,24.836 C248.737004,25.5400035 249.122,26.5519934 249.122,27.872 L249.122,35 L246.768,35 L246.768,28.62 C246.768,26.6839903 245.983341,25.716 244.414,25.716 C243.592663,25.716 242.88867,25.9983305 242.302,26.563 C241.71533,27.1276695 241.422,27.9966608 241.422,29.17 L241.422,35 L239.068,35 L239.068,24 L241.158,24 L241.268,25.826 C241.634669,25.1366632 242.140663,24.623335 242.786,24.286 C243.431337,23.948665 244.164663,23.78 244.986,23.78 C246.203339,23.78 247.196996,24.1319965 247.967,24.836 Z M262.05,26.86 L259.85,27.74 C259.468665,26.3466597 258.610673,25.65 257.276,25.65 C256.293328,25.65 255.530669,25.98733 254.988,26.662 C254.445331,27.33667 254.174,28.2899938 254.174,29.522 C254.174,30.7540062 254.445331,31.6999967 254.988,32.36 C255.530669,33.0200033 256.293328,33.35 257.276,33.35 C258.024004,33.35 258.625331,33.1666685 259.08,32.8 C259.534669,32.4333315 259.835333,31.9053368 259.982,31.216 L262.138,31.942 C261.815332,32.9686718 261.243337,33.7716638 260.422,34.351 C259.600663,34.9303362 258.566673,35.22 257.32,35.22 C255.589325,35.22 254.236338,34.7140051 253.261,33.702 C252.285662,32.6899949 251.798,31.2893423 251.798,29.5 C251.798,27.7106577 252.281995,26.3100051 253.25,25.298 C254.218005,24.2859949 255.559991,23.78 257.276,23.78 C259.681345,23.78 261.272663,24.8066564 262.05,26.86 Z M269.368,36.298 C268.883998,37.5593396 268.334003,38.4466641 267.718,38.96 C267.101997,39.4733359 266.295338,39.73 265.298,39.73 C264.725997,39.73 264.231002,39.660334 263.813,39.521 C263.394998,39.381666 263.024668,39.1580015 262.702,38.85 L263.384,37.046 C263.824002,37.5740026 264.42533,37.838 265.188,37.838 C265.628002,37.838 265.998332,37.7243345 266.299,37.497 C266.599668,37.2696655 266.867332,36.8553363 267.102,36.254 L267.586,35.066 L266.442,32.338 L263.01,24 L265.65,24 L268.07,30.908 L268.708,32.976 L269.456,30.71 L271.744,24 L274.186,24 L269.368,36.298 Z" id="Automation-agency" fill="#000000"></path>
                <rect id="Rectangle" fill="#000000" x="0" y="0" width="56" height="56"></rect>
                <path d="M23.28,32.17 L15.66,32.17 L14.04,37 L9.81,37 L17.04,17.2 L21.99,17.2 L29.22,37 L24.93,37 L23.28,32.17 Z M22.26,29.11 L20.4,23.53 L19.5,20.53 L19.44,20.53 L18.6,23.47 L16.68,29.11 L22.26,29.11 Z M46.22,34.39 L45.92,36.88 C45.3599972,37.1600014 44.7100037,37.3 43.97,37.3 C42.0499904,37.3 40.9000019,36.5500075 40.52,35.05 C40.0799978,35.7900037 39.4000046,36.3499981 38.48,36.73 C37.5599954,37.1100019 36.4700063,37.3 35.21,37.3 C33.7499927,37.3 32.6100041,36.9700033 31.79,36.31 C30.9699959,35.6499967 30.56,34.7000062 30.56,33.46 C30.56,31.0199878 32.5099805,29.4400036 36.41,28.72 L40.01,28.03 L40.01,27.31 C40.01,26.509996 39.7850022,25.8750023 39.335,25.405 C38.8849977,24.9349976 38.260004,24.7 37.46,24.7 C36.5399954,24.7 35.7900029,24.899998 35.21,25.3 C34.6299971,25.700002 34.2300011,26.3499955 34.01,27.25 L30.74,25.87 C31.0600016,24.5699935 31.7799944,23.5500037 32.9,22.81 C34.0200056,22.0699963 35.479991,21.7 37.28,21.7 C39.4200107,21.7 41.089994,22.1649953 42.29,23.095 C43.490006,24.0250046 44.09,25.3999909 44.09,27.22 L44.09,33.37 C44.09,33.770002 44.1799991,34.0599991 44.36,34.24 C44.5400009,34.4200009 44.8199981,34.51 45.2,34.51 C45.6200021,34.51 45.9599987,34.4700004 46.22,34.39 Z M38.915,33.865 C39.6450036,33.4349978 40.01,32.8500037 40.01,32.11 L40.01,30.55 L36.8,31.27 C36.1199966,31.4300008 35.6150016,31.6449986 35.285,31.915 C34.9549983,32.1850013 34.79,32.5599976 34.79,33.04 C34.79,33.5200024 34.9399985,33.8849987 35.24,34.135 C35.5400015,34.3850012 35.9599973,34.51 36.5,34.51 C37.3800044,34.51 38.1849963,34.2950021 38.915,33.865 Z" id="Aa" fill="#FFFFFF"></path>
            </g>
        </g>
    </g>
</svg>