<?xml version="1.0" encoding="UTF-8"?>
<svg width="290px" height="56px" viewBox="0 0 290 56" version="1.1" xmlns="http://www.w3.org/2000/svg" xmlns:xlink="http://www.w3.org/1999/xlink">
    <!-- Generator: Sketch 46.2 (44496) - http://www.bohemiancoding.com/sketch -->
    <title>Group</title>
    <desc>Created with Sketch.</desc>
    <defs></defs>
    <g id="Page-1" stroke="none" stroke-width="1" fill="none" fill-rule="evenodd">
        <g id="Artboard" transform="translate(-451.000000, -54.000000)">
            <g id="Group" transform="translate(451.000000, 54.000000)">
                <rect id="Path" fill="#FFFFFF" x="0" y="0" width="290" height="56"></rect>
                <text id="Automation-agency" font-family="WorkSans-Medium, Work Sans" font-size="22" font-weight="400" letter-spacing="-0.25" fill="#000000">
                    <tspan x="70" y="35">Automation agency</tspan>
                </text>
                <rect id="Rectangle" fill="#000000" x="0" y="0" width="56" height="56"></rect>
                <path d="M23.28,32.17 L15.66,32.17 L14.04,37 L9.81,37 L17.04,17.2 L21.99,17.2 L29.22,37 L24.93,37 L23.28,32.17 Z M22.26,29.11 L20.4,23.53 L19.5,20.53 L19.44,20.53 L18.6,23.47 L16.68,29.11 L22.26,29.11 Z M46.22,34.39 L45.92,36.88 C45.3599972,37.1600014 44.7100037,37.3 43.97,37.3 C42.0499904,37.3 40.9000019,36.5500075 40.52,35.05 C40.0799978,35.7900037 39.4000046,36.3499981 38.48,36.73 C37.5599954,37.1100019 36.4700063,37.3 35.21,37.3 C33.7499927,37.3 32.6100041,36.9700033 31.79,36.31 C30.9699959,35.6499967 30.56,34.7000062 30.56,33.46 C30.56,31.0199878 32.5099805,29.4400036 36.41,28.72 L40.01,28.03 L40.01,27.31 C40.01,26.509996 39.7850022,25.8750023 39.335,25.405 C38.8849977,24.9349976 38.260004,24.7 37.46,24.7 C36.5399954,24.7 35.7900029,24.899998 35.21,25.3 C34.6299971,25.700002 34.2300011,26.3499955 34.01,27.25 L30.74,25.87 C31.0600016,24.5699935 31.7799944,23.5500037 32.9,22.81 C34.0200056,22.0699963 35.479991,21.7 37.28,21.7 C39.4200107,21.7 41.089994,22.1649953 42.29,23.095 C43.490006,24.0250046 44.09,25.3999909 44.09,27.22 L44.09,33.37 C44.09,33.770002 44.1799991,34.0599991 44.36,34.24 C44.5400009,34.4200009 44.8199981,34.51 45.2,34.51 C45.6200021,34.51 45.9599987,34.4700004 46.22,34.39 Z M38.915,33.865 C39.6450036,33.4349978 40.01,32.8500037 40.01,32.11 L40.01,30.55 L36.8,31.27 C36.1199966,31.4300008 35.6150016,31.6449986 35.285,31.915 C34.9549983,32.1850013 34.79,32.5599976 34.79,33.04 C34.79,33.5200024 34.9399985,33.8849987 35.24,34.135 C35.5400015,34.3850012 35.9599973,34.51 36.5,34.51 C37.3800044,34.51 38.1849963,34.2950021 38.915,33.865 Z" id="Aa" fill="#FFFFFF"></path>
            </g>
        </g>
    </g>
</svg>